<svg width="40" height="40" viewBox="0 0 40 40" fill="none" xmlns="http://www.w3.org/2000/svg">
<g filter="url(#filter0_d_11411_4)">
<circle cx="20" cy="20" r="20" fill="white"/>
</g>
<path d="M 27.0013 20.8375 C 27.0018 20.6881 26.9688 20.5405 26.9048 20.4055 C 26.8407 20.2705 26.7473 20.1516 26.6313 20.0575 L 20.6312 15.2275 C 20.4523 15.0804 20.2279 15 19.9962 15 C 19.7646 15 19.5402 15.0804 19.3613 15.2275 L 13.3613 20.2275 C 13.157 20.3972 13.0286 20.6411 13.0042 20.9056 C 12.9799 21.17 13.0615 21.4333 13.2313 21.6375 C 13.401 21.8417 13.6449 21.9701 13.9093 21.9945 C 14.1738 22.0189 14.437 21.9372 14.6413 21.7675 L 20.0012 17.2975 L 25.3613 21.6175 C 25.508 21.7398 25.6868 21.8175 25.8763 21.8413 C 26.0659 21.8652 26.2583 21.8343 26.4308 21.7522 C 26.6034 21.6702 26.7488 21.5404 26.8499 21.3783 C 26.9509 21.2162 27.0035 21.0285 27.0013 20.8375 Z" fill="#000985"/>
<defs>
<filter id="filter0_d_11411_4" x="0" y="0" width="40" height="40" filterUnits="userSpaceOnUse" color-interpolation-filters="sRGB">
<feFlood flood-opacity="0" result="BackgroundImageFix"/>
<feColorMatrix in="SourceAlpha" type="matrix" values="0 0 0 0 0 0 0 0 0 0 0 0 0 0 0 0 0 0 127 0" result="hardAlpha"/>
<feOffset dy="4"/>
<feGaussianBlur stdDeviation="15"/>
<feComposite in2="hardAlpha" operator="out"/>
<feColorMatrix type="matrix" values="0 0 0 0 0.65098 0 0 0 0 0.745098 0 0 0 0 0.886275 0 0 0 0.5 0"/>
<feBlend mode="normal" in2="BackgroundImageFix" result="effect1_dropShadow_11411_4"/>
<feBlend mode="normal" in="SourceGraphic" in2="effect1_dropShadow_11411_4" result="shape"/>
</filter>
</defs>
</svg>
